G04*
G04 #@! TF.GenerationSoftware,Altium Limited,Altium Designer,25.8.1 (18)*
G04*
G04 Layer_Physical_Order=1*
G04 Layer_Color=255*
%FSTAX44Y44*%
%MOMM*%
G71*
G04*
G04 #@! TF.SameCoordinates,53145892-F8B7-426C-B92B-CC24EB8AAB86*
G04*
G04*
G04 #@! TF.FilePolarity,Positive*
G04*
G01*
G75*
%ADD15C,1.2700*%
%ADD16C,1.8000*%
G04:AMPARAMS|DCode=17|XSize=1.8mm|YSize=1.8mm|CornerRadius=0.45mm|HoleSize=0mm|Usage=FLASHONLY|Rotation=0.000|XOffset=0mm|YOffset=0mm|HoleType=Round|Shape=RoundedRectangle|*
%AMROUNDEDRECTD17*
21,1,1.8000,0.9000,0,0,0.0*
21,1,0.9000,1.8000,0,0,0.0*
1,1,0.9000,0.4500,-0.4500*
1,1,0.9000,-0.4500,-0.4500*
1,1,0.9000,-0.4500,0.4500*
1,1,0.9000,0.4500,0.4500*
%
%ADD17ROUNDEDRECTD17*%
%ADD18R,1.8000X1.8000*%
G36*
X01425513Y009017D02*
Y00454087D01*
X00904937D01*
Y01000063D01*
X01425513D01*
Y009017D01*
D02*
G37*
%LPC*%
G36*
X0129482Y00969181D02*
X0128582D01*
X01283982Y00968939D01*
X0128227Y00968229D01*
X01281317Y00967499D01*
X01280084Y00967005D01*
X01274386Y00966447D01*
X01272006Y00966814D01*
X01269374Y00968334D01*
X01266439Y0096912D01*
X01263401D01*
X01260466Y00968334D01*
X01257834Y00966814D01*
X0125687Y0096585D01*
X0125222Y00965171D01*
X0124757Y0096585D01*
X01246606Y00966814D01*
X01243974Y00968334D01*
X01241039Y0096912D01*
X01238001D01*
X01235066Y00968334D01*
X01232434Y00966814D01*
X0123147Y0096585D01*
X0122682Y00965171D01*
X0122217Y0096585D01*
X01221206Y00966814D01*
X01218574Y00968334D01*
X01215639Y0096912D01*
X01212601D01*
X01209666Y00968334D01*
X01207034Y00966814D01*
X01204654Y00966447D01*
X01198956Y00967005D01*
X01197723Y00967499D01*
X0119677Y00968229D01*
X01195058Y00968939D01*
X0119322Y00969181D01*
X0118999D01*
Y0095758D01*
Y00945979D01*
X0119322D01*
X01195058Y00946221D01*
X0119677Y00946931D01*
X01197723Y00947661D01*
X01198956Y00948155D01*
X01204654Y00948713D01*
X01207034Y00948346D01*
X01209666Y00946826D01*
X01212601Y0094604D01*
X01215639D01*
X01218574Y00946826D01*
X01221206Y00948346D01*
X0122217Y0094931D01*
X0122682Y00949989D01*
X0123147Y0094931D01*
X01232434Y00948346D01*
X01235066Y00946826D01*
X01238001Y0094604D01*
X01241039D01*
X01243974Y00946826D01*
X01246606Y00948346D01*
X0124757Y0094931D01*
X0125222Y00949989D01*
X0125687Y0094931D01*
X01257834Y00948346D01*
X01260466Y00946826D01*
X01263401Y0094604D01*
X01266439D01*
X01269374Y00946826D01*
X01272006Y00948346D01*
X01274166Y0094868D01*
X01281353Y00947569D01*
Y00939704D01*
X01276446Y00934797D01*
X0123317D01*
X01230849Y00934491D01*
X01228687Y00933595D01*
X0122683Y0093217D01*
X0120778Y0091312D01*
X01206355Y00911263D01*
X01205459Y00909101D01*
X01205153Y0090678D01*
Y0089441D01*
X01200518Y00892057D01*
X01198458Y00891634D01*
X01197493Y00891749D01*
X0119677Y00892029D01*
X01196368Y00892196D01*
X01195058Y00892739D01*
X0119322Y00892981D01*
X0118999D01*
Y0088138D01*
Y00869779D01*
X0119322D01*
X01195058Y00870021D01*
X01196368Y00870564D01*
X0119677Y00870731D01*
X01199679Y00871859D01*
X01203161D01*
X0120607Y00870731D01*
X01206472Y00870564D01*
X01207782Y00870021D01*
X0120962Y00869779D01*
X0121862D01*
X01220458Y00870021D01*
X0122217Y00870731D01*
X01223641Y00871859D01*
X01224769Y0087333D01*
X01225479Y00875042D01*
X01225721Y0087688D01*
Y0088588D01*
X01225479Y00887718D01*
X01224769Y0088943D01*
X01223641Y00890901D01*
X01223087Y00891326D01*
Y00903066D01*
X01236884Y00916863D01*
X0128016D01*
X01282481Y00917169D01*
X01284643Y00918065D01*
X012865Y0091949D01*
X0129666Y0092965D01*
X01298085Y00931507D01*
X01298981Y00933669D01*
X01299287Y0093599D01*
Y00947569D01*
X01306474Y0094868D01*
X01308634Y00948346D01*
X01311266Y00946826D01*
X01314201Y0094604D01*
X01317239D01*
X01320174Y00946826D01*
X01322806Y00948346D01*
X01324954Y00950494D01*
X01326474Y00953126D01*
X0132726Y00956061D01*
Y00959099D01*
X01326474Y00962034D01*
X01324954Y00964666D01*
X01322806Y00966814D01*
X01320174Y00968334D01*
X01317239Y0096912D01*
X01314201D01*
X01311266Y00968334D01*
X01308634Y00966814D01*
X01306254Y00966447D01*
X01300556Y00967005D01*
X01299323Y00967499D01*
X0129837Y00968229D01*
X01296658Y00968939D01*
X0129482Y00969181D01*
D02*
G37*
G36*
X0118745D02*
X0118422D01*
X01182382Y00968939D01*
X0118067Y00968229D01*
X01179717Y00967499D01*
X01178484Y00967005D01*
X01172786Y00966447D01*
X01170406Y00966814D01*
X01167774Y00968334D01*
X01164839Y0096912D01*
X01161801D01*
X01158866Y00968334D01*
X01156234Y00966814D01*
X0115527Y0096585D01*
X0115062Y00965171D01*
X0114597Y0096585D01*
X01145006Y00966814D01*
X01142374Y00968334D01*
X01139439Y0096912D01*
X01136401D01*
X01133466Y00968334D01*
X01130834Y00966814D01*
X01128686Y00964666D01*
X01127167Y00962034D01*
X0112638Y00959099D01*
Y00956061D01*
X01127167Y00953126D01*
X01128686Y00950494D01*
X01130834Y00948346D01*
X01133466Y00946826D01*
X01136401Y0094604D01*
X01139439D01*
X01142374Y00946826D01*
X01145006Y00948346D01*
X0114597Y0094931D01*
X0115062Y00949989D01*
X0115527Y0094931D01*
X01156234Y00948346D01*
X01158866Y00946826D01*
X01161801Y0094604D01*
X01164839D01*
X01167774Y00946826D01*
X01170406Y00948346D01*
X01172786Y00948713D01*
X01178484Y00948155D01*
X01179717Y00947661D01*
X0118067Y00946931D01*
X01182382Y00946221D01*
X0118422Y00945979D01*
X0118745D01*
Y0095758D01*
Y00969181D01*
D02*
G37*
G36*
X01098799Y0096912D02*
X01095761D01*
X01092826Y00968334D01*
X01090194Y00966814D01*
X0108923Y0096585D01*
X0108458Y00965171D01*
X0107993Y0096585D01*
X01078966Y00966814D01*
X01076334Y00968334D01*
X01073399Y0096912D01*
X01070361D01*
X01067426Y00968334D01*
X01064794Y00966814D01*
X0106383Y0096585D01*
X0105918Y00965171D01*
X0105453Y0096585D01*
X01053566Y00966814D01*
X01050934Y00968334D01*
X01047999Y0096912D01*
X01044961D01*
X01042026Y00968334D01*
X01039394Y00966814D01*
X0103843Y0096585D01*
X0103378Y00965171D01*
X0102913Y0096585D01*
X01028166Y00966814D01*
X01025534Y00968334D01*
X01022599Y0096912D01*
X01019561D01*
X01016626Y00968334D01*
X01013994Y00966814D01*
X0101303Y0096585D01*
X0100838Y00965171D01*
X0100373Y0096585D01*
X01002766Y00966814D01*
X01000134Y00968334D01*
X00997199Y0096912D01*
X00994161D01*
X00991226Y00968334D01*
X00988594Y00966814D01*
X0098763Y0096585D01*
X0098298Y00965171D01*
X0097833Y0096585D01*
X00977366Y00966814D01*
X00974734Y00968334D01*
X00971799Y0096912D01*
X00968761D01*
X00965826Y00968334D01*
X00963194Y00966814D01*
X00961046Y00964666D01*
X00959527Y00962034D01*
X0095874Y00959099D01*
Y00956061D01*
X00959527Y00953126D01*
X00961046Y00950494D01*
X00963194Y00948346D01*
X00965826Y00946826D01*
X00968761Y0094604D01*
X00971799D01*
X00974734Y00946826D01*
X00977366Y00948346D01*
X0097833Y0094931D01*
X0098298Y00949989D01*
X0098763Y0094931D01*
X00988594Y00948346D01*
X00991226Y00946826D01*
X00994161Y0094604D01*
X00997199D01*
X01000134Y00946826D01*
X01002766Y00948346D01*
X0100373Y0094931D01*
X0100838Y00949989D01*
X0101303Y0094931D01*
X01013994Y00948346D01*
X01016626Y00946826D01*
X01019561Y0094604D01*
X01022599D01*
X01025534Y00946826D01*
X01028166Y00948346D01*
X0102913Y0094931D01*
X0103378Y00949989D01*
X0103843Y0094931D01*
X01039394Y00948346D01*
X01042026Y00946826D01*
X01044961Y0094604D01*
X01047999D01*
X01050934Y00946826D01*
X01053566Y00948346D01*
X0105453Y0094931D01*
X0105918Y00949989D01*
X0106383Y0094931D01*
X01064794Y00948346D01*
X01067426Y00946826D01*
X01070361Y0094604D01*
X01073399D01*
X01076334Y00946826D01*
X01078966Y00948346D01*
X0107993Y0094931D01*
X0108458Y00949989D01*
X0108923Y0094931D01*
X01090194Y00948346D01*
X01092826Y00946826D01*
X01095761Y0094604D01*
X01098799D01*
X01101734Y00946826D01*
X01104366Y00948346D01*
X01106514Y00950494D01*
X01108034Y00953126D01*
X0110882Y00956061D01*
Y00959099D01*
X01108034Y00962034D01*
X01106514Y00964666D01*
X01104366Y00966814D01*
X01101734Y00968334D01*
X01098799Y0096912D01*
D02*
G37*
G36*
X0138626Y00892981D02*
X0137726D01*
X01375422Y00892739D01*
X01374112Y00892196D01*
X0137371Y00892029D01*
X01370801Y00890901D01*
X01367319D01*
X0136441Y00892029D01*
X01364008Y00892196D01*
X01362698Y00892739D01*
X0136086Y00892981D01*
X0135763D01*
Y0088138D01*
Y00869779D01*
X0136086D01*
X01362698Y00870021D01*
X01364008Y00870564D01*
X0136441Y00870731D01*
X01367319Y00871859D01*
X01370801D01*
X0137371Y00870731D01*
X01374112Y00870564D01*
X01375422Y00870021D01*
X0137726Y00869779D01*
X0138626D01*
X01388098Y00870021D01*
X0138981Y00870731D01*
X01391281Y00871859D01*
X01392409Y0087333D01*
X01393119Y00875042D01*
X01393361Y0087688D01*
Y0088588D01*
X01393119Y00887718D01*
X01392409Y0088943D01*
X01391281Y00890901D01*
X0138981Y00892029D01*
X01388098Y00892739D01*
X0138626Y00892981D01*
D02*
G37*
G36*
X0105098D02*
X0104198D01*
X01040142Y00892739D01*
X01038832Y00892196D01*
X0103843Y00892029D01*
X01035521Y00890901D01*
X01032039D01*
X0102913Y00892029D01*
X01028728Y00892196D01*
X01027418Y00892739D01*
X0102558Y00892981D01*
X0102235D01*
Y0088138D01*
Y00869779D01*
X0102558D01*
X01027418Y00870021D01*
X01028728Y00870564D01*
X0102913Y00870731D01*
X01032039Y00871859D01*
X01035521D01*
X0103843Y00870731D01*
X01038832Y00870564D01*
X01040142Y00870021D01*
X0104198Y00869779D01*
X0105098D01*
X01052818Y00870021D01*
X0105453Y00870731D01*
X01056001Y00871859D01*
X01057129Y0087333D01*
X01057839Y00875042D01*
X01058081Y0087688D01*
Y0088588D01*
X01057839Y00887718D01*
X01057129Y0088943D01*
X01056001Y00890901D01*
X0105453Y00892029D01*
X01052818Y00892739D01*
X0105098Y00892981D01*
D02*
G37*
G36*
X0135509D02*
X0135186D01*
X01350022Y00892739D01*
X0134831Y00892029D01*
X01347357Y00891299D01*
X01346124Y00890805D01*
X01340426Y00890247D01*
X01338046Y00890614D01*
X01335414Y00892133D01*
X01332479Y0089292D01*
X01329441D01*
X01326506Y00892133D01*
X0132472Y00891103D01*
X013171Y0089292D01*
X01315966Y0089292D01*
X0129402D01*
Y0086984D01*
X01315951D01*
X013171Y0086984D01*
X0132472Y00871657D01*
X01326506Y00870627D01*
X01329441Y0086984D01*
X01332479D01*
X01335414Y00870627D01*
X01338046Y00872146D01*
X01340426Y00872513D01*
X01346124Y00871955D01*
X01347357Y00871461D01*
X0134831Y00870731D01*
X01350022Y00870021D01*
X0135186Y00869779D01*
X0135509D01*
Y0088138D01*
Y00892981D01*
D02*
G37*
G36*
X0118745D02*
X0118422D01*
X01182382Y00892739D01*
X0118067Y00892029D01*
X01179717Y00891299D01*
X01178484Y00890805D01*
X01172786Y00890247D01*
X01170406Y00890614D01*
X01167774Y00892133D01*
X01164839Y0089292D01*
X01161801D01*
X01158866Y00892133D01*
X0115708Y00891103D01*
X0114946Y0089292D01*
X01148326Y0089292D01*
X0112638D01*
Y0086984D01*
X01148311D01*
X0114946Y0086984D01*
X0115708Y00871657D01*
X01158866Y00870627D01*
X01161801Y0086984D01*
X01164839D01*
X01167774Y00870627D01*
X01170406Y00872146D01*
X01172786Y00872513D01*
X01178484Y00871955D01*
X01179717Y00871461D01*
X0118067Y00870731D01*
X01182382Y00870021D01*
X0118422Y00869779D01*
X0118745D01*
Y0088138D01*
Y00892981D01*
D02*
G37*
G36*
X0101981D02*
X0101658D01*
X01014742Y00892739D01*
X0101303Y00892029D01*
X01012077Y00891299D01*
X01010844Y00890805D01*
X01005146Y00890247D01*
X01002766Y00890614D01*
X01000134Y00892133D01*
X00997199Y0089292D01*
X00994161D01*
X00991226Y00892133D01*
X0098944Y00891103D01*
X0098182Y0089292D01*
X00980686Y0089292D01*
X0095874D01*
Y0086984D01*
X00980671D01*
X0098182Y0086984D01*
X0098944Y00871657D01*
X00991226Y00870627D01*
X00994161Y0086984D01*
X00997199D01*
X01000134Y00870627D01*
X01002766Y00872146D01*
X01005146Y00872513D01*
X01010844Y00871955D01*
X01012077Y00871461D01*
X0101303Y00870731D01*
X01014742Y00870021D01*
X0101658Y00869779D01*
X0101981D01*
Y0088138D01*
Y00892981D01*
D02*
G37*
G36*
X0138626Y00816781D02*
X0137726D01*
X01375422Y00816539D01*
X01374112Y00815996D01*
X0137371Y00815829D01*
X01370801Y00814701D01*
X01367319D01*
X0136441Y00815829D01*
X01364008Y00815996D01*
X01362698Y00816539D01*
X0136086Y00816781D01*
X0135763D01*
Y0080518D01*
Y00793579D01*
X0136086D01*
X01362698Y00793821D01*
X01364008Y00794364D01*
X0136441Y00794531D01*
X01367319Y00795659D01*
X01370801D01*
X0137371Y00794531D01*
X01374112Y00794364D01*
X01375422Y00793821D01*
X0137726Y00793579D01*
X0138626D01*
X01388098Y00793821D01*
X0138981Y00794531D01*
X01391281Y00795659D01*
X01392409Y0079713D01*
X01393119Y00798842D01*
X01393361Y0080068D01*
Y0080968D01*
X01393119Y00811518D01*
X01392409Y0081323D01*
X01391281Y00814701D01*
X0138981Y00815829D01*
X01388098Y00816539D01*
X0138626Y00816781D01*
D02*
G37*
G36*
X0121862D02*
X0120962D01*
X01207782Y00816539D01*
X01206472Y00815996D01*
X0120607Y00815829D01*
X01203161Y00814701D01*
X01199679D01*
X0119677Y00815829D01*
X01196368Y00815996D01*
X01195058Y00816539D01*
X0119322Y00816781D01*
X0118999D01*
Y0080518D01*
Y00793579D01*
X0119322D01*
X01195058Y00793821D01*
X01196368Y00794364D01*
X0119677Y00794531D01*
X01199679Y00795659D01*
X01203161D01*
X0120607Y00794531D01*
X01206472Y00794364D01*
X01207782Y00793821D01*
X0120962Y00793579D01*
X0121862D01*
X01220458Y00793821D01*
X0122217Y00794531D01*
X01223641Y00795659D01*
X01224769Y0079713D01*
X01225479Y00798842D01*
X01225721Y0080068D01*
Y0080968D01*
X01225479Y00811518D01*
X01224769Y0081323D01*
X01223641Y00814701D01*
X0122217Y00815829D01*
X01220458Y00816539D01*
X0121862Y00816781D01*
D02*
G37*
G36*
X0105098D02*
X0104198D01*
X01040142Y00816539D01*
X01038832Y00815996D01*
X0103843Y00815829D01*
X01035521Y00814701D01*
X01032039D01*
X0102913Y00815829D01*
X01028728Y00815996D01*
X01027418Y00816539D01*
X0102558Y00816781D01*
X0102235D01*
Y0080518D01*
Y00793579D01*
X0102558D01*
X01027418Y00793821D01*
X01028728Y00794364D01*
X0102913Y00794531D01*
X01032039Y00795659D01*
X01035521D01*
X0103843Y00794531D01*
X01038832Y00794364D01*
X01040142Y00793821D01*
X0104198Y00793579D01*
X0105098D01*
X01052818Y00793821D01*
X0105453Y00794531D01*
X01056001Y00795659D01*
X01057129Y0079713D01*
X01057839Y00798842D01*
X01058081Y0080068D01*
Y0080968D01*
X01057839Y00811518D01*
X01057129Y0081323D01*
X01056001Y00814701D01*
X0105453Y00815829D01*
X01052818Y00816539D01*
X0105098Y00816781D01*
D02*
G37*
G36*
X0135509D02*
X0135186D01*
X01350022Y00816539D01*
X0134831Y00815829D01*
X01347357Y00815099D01*
X01346124Y00814605D01*
X01340426Y00814047D01*
X01338046Y00814414D01*
X01335414Y00815934D01*
X01332479Y0081672D01*
X01329441D01*
X01326506Y00815934D01*
X0132472Y00814902D01*
X013171Y0081672D01*
X01315966Y0081672D01*
X0129402D01*
Y0079364D01*
X01315951D01*
X013171Y0079364D01*
X0132472Y00795458D01*
X01326506Y00794426D01*
X01329441Y0079364D01*
X01332479D01*
X01335414Y00794426D01*
X01338046Y00795946D01*
X01340426Y00796313D01*
X01346124Y00795755D01*
X01347357Y00795261D01*
X0134831Y00794531D01*
X01350022Y00793821D01*
X0135186Y00793579D01*
X0135509D01*
Y0080518D01*
Y00816781D01*
D02*
G37*
G36*
X0118745D02*
X0118422D01*
X01182382Y00816539D01*
X0118067Y00815829D01*
X01179717Y00815099D01*
X01178484Y00814605D01*
X01172786Y00814047D01*
X01170406Y00814414D01*
X01167774Y00815934D01*
X01164839Y0081672D01*
X01161801D01*
X01158866Y00815934D01*
X0115708Y00814902D01*
X0114946Y0081672D01*
X01148326Y0081672D01*
X0112638D01*
Y0079364D01*
X01148311D01*
X0114946Y0079364D01*
X0115708Y00795458D01*
X01158866Y00794426D01*
X01161801Y0079364D01*
X01164839D01*
X01167774Y00794426D01*
X01170406Y00795946D01*
X01172786Y00796313D01*
X01178484Y00795755D01*
X01179717Y00795261D01*
X0118067Y00794531D01*
X01182382Y00793821D01*
X0118422Y00793579D01*
X0118745D01*
Y0080518D01*
Y00816781D01*
D02*
G37*
G36*
X0101981D02*
X0101658D01*
X01014742Y00816539D01*
X0101303Y00815829D01*
X01012077Y00815099D01*
X01010844Y00814605D01*
X01005146Y00814047D01*
X01002766Y00814414D01*
X01000134Y00815934D01*
X00997199Y0081672D01*
X00994161D01*
X00991226Y00815934D01*
X0098944Y00814902D01*
X0098182Y0081672D01*
X00980686Y0081672D01*
X0095874D01*
Y0079364D01*
X00980671D01*
X0098182Y0079364D01*
X0098944Y00795458D01*
X00991226Y00794426D01*
X00994161Y0079364D01*
X00997199D01*
X01000134Y00794426D01*
X01002766Y00795946D01*
X01005146Y00796313D01*
X01010844Y00795755D01*
X01012077Y00795261D01*
X0101303Y00794531D01*
X01014742Y00793821D01*
X0101658Y00793579D01*
X0101981D01*
Y0080518D01*
Y00816781D01*
D02*
G37*
G36*
X0138626Y00740581D02*
X0137726D01*
X01375422Y00740339D01*
X01374112Y00739796D01*
X0137371Y00739629D01*
X01370801Y00738501D01*
X01367319D01*
X0136441Y00739629D01*
X01364008Y00739796D01*
X01362698Y00740339D01*
X0136086Y00740581D01*
X0135763D01*
Y0072898D01*
Y00717379D01*
X0136086D01*
X01362698Y00717621D01*
X01364008Y00718164D01*
X0136441Y00718331D01*
X01367319Y00719459D01*
X01370801D01*
X0137371Y00718331D01*
X01374112Y00718164D01*
X01375422Y00717621D01*
X0137726Y00717379D01*
X0138626D01*
X01388098Y00717621D01*
X0138981Y00718331D01*
X01391281Y00719459D01*
X01392409Y0072093D01*
X01393119Y00722642D01*
X01393361Y0072448D01*
Y0073348D01*
X01393119Y00735318D01*
X01392409Y0073703D01*
X01391281Y00738501D01*
X0138981Y00739629D01*
X01388098Y00740339D01*
X0138626Y00740581D01*
D02*
G37*
G36*
X0121862D02*
X0120962D01*
X01207782Y00740339D01*
X01206472Y00739796D01*
X0120607Y00739629D01*
X01203161Y00738501D01*
X01199679D01*
X0119677Y00739629D01*
X01196368Y00739796D01*
X01195058Y00740339D01*
X0119322Y00740581D01*
X0118999D01*
Y0072898D01*
Y00717379D01*
X0119322D01*
X01195058Y00717621D01*
X01196368Y00718164D01*
X0119677Y00718331D01*
X01199679Y00719459D01*
X01203161D01*
X0120607Y00718331D01*
X01206472Y00718164D01*
X01207782Y00717621D01*
X0120962Y00717379D01*
X0121862D01*
X01220458Y00717621D01*
X0122217Y00718331D01*
X01223641Y00719459D01*
X01224769Y0072093D01*
X01225479Y00722642D01*
X01225721Y0072448D01*
Y0073348D01*
X01225479Y00735318D01*
X01224769Y0073703D01*
X01223641Y00738501D01*
X0122217Y00739629D01*
X01220458Y00740339D01*
X0121862Y00740581D01*
D02*
G37*
G36*
X0105098D02*
X0104198D01*
X01040142Y00740339D01*
X01038832Y00739796D01*
X0103843Y00739629D01*
X01035521Y00738501D01*
X01032039D01*
X0102913Y00739629D01*
X01028728Y00739796D01*
X01027418Y00740339D01*
X0102558Y00740581D01*
X0102235D01*
Y0072898D01*
Y00717379D01*
X0102558D01*
X01027418Y00717621D01*
X01028728Y00718164D01*
X0102913Y00718331D01*
X01032039Y00719459D01*
X01035521D01*
X0103843Y00718331D01*
X01038832Y00718164D01*
X01040142Y00717621D01*
X0104198Y00717379D01*
X0105098D01*
X01052818Y00717621D01*
X0105453Y00718331D01*
X01056001Y00719459D01*
X01057129Y0072093D01*
X01057839Y00722642D01*
X01058081Y0072448D01*
Y0073348D01*
X01057839Y00735318D01*
X01057129Y0073703D01*
X01056001Y00738501D01*
X0105453Y00739629D01*
X01052818Y00740339D01*
X0105098Y00740581D01*
D02*
G37*
G36*
X0135509D02*
X0135186D01*
X01350022Y00740339D01*
X0134831Y00739629D01*
X01347357Y00738899D01*
X01346124Y00738405D01*
X01340426Y00737847D01*
X01338046Y00738214D01*
X01335414Y00739734D01*
X01332479Y0074052D01*
X01329441D01*
X01326506Y00739734D01*
X0132472Y00738702D01*
X013171Y0074052D01*
X01315966Y0074052D01*
X0129402D01*
Y0071744D01*
X01315951D01*
X013171Y0071744D01*
X0132472Y00719258D01*
X01326506Y00718226D01*
X01329441Y0071744D01*
X01332479D01*
X01335414Y00718226D01*
X01338046Y00719746D01*
X01340426Y00720113D01*
X01346124Y00719555D01*
X01347357Y00719061D01*
X0134831Y00718331D01*
X01350022Y00717621D01*
X0135186Y00717379D01*
X0135509D01*
Y0072898D01*
Y00740581D01*
D02*
G37*
G36*
X0118745D02*
X0118422D01*
X01182382Y00740339D01*
X0118067Y00739629D01*
X01179717Y00738899D01*
X01178484Y00738405D01*
X01172786Y00737847D01*
X01170406Y00738214D01*
X01167774Y00739734D01*
X01164839Y0074052D01*
X01161801D01*
X01158866Y00739734D01*
X0115708Y00738702D01*
X0114946Y0074052D01*
X01148326Y0074052D01*
X0112638D01*
Y0071744D01*
X01148311D01*
X0114946Y0071744D01*
X0115708Y00719258D01*
X01158866Y00718226D01*
X01161801Y0071744D01*
X01164839D01*
X01167774Y00718226D01*
X01170406Y00719746D01*
X01172786Y00720113D01*
X01178484Y00719555D01*
X01179717Y00719061D01*
X0118067Y00718331D01*
X01182382Y00717621D01*
X0118422Y00717379D01*
X0118745D01*
Y0072898D01*
Y00740581D01*
D02*
G37*
G36*
X0101981D02*
X0101658D01*
X01014742Y00740339D01*
X0101303Y00739629D01*
X01012077Y00738899D01*
X01010844Y00738405D01*
X01005146Y00737847D01*
X01002766Y00738214D01*
X01000134Y00739734D01*
X00997199Y0074052D01*
X00994161D01*
X00991226Y00739734D01*
X0098944Y00738702D01*
X0098182Y0074052D01*
X00980686Y0074052D01*
X0095874D01*
Y0071744D01*
X00980671D01*
X0098182Y0071744D01*
X0098944Y00719258D01*
X00991226Y00718226D01*
X00994161Y0071744D01*
X00997199D01*
X01000134Y00718226D01*
X01002766Y00719746D01*
X01005146Y00720113D01*
X01010844Y00719555D01*
X01012077Y00719061D01*
X0101303Y00718331D01*
X01014742Y00717621D01*
X0101658Y00717379D01*
X0101981D01*
Y0072898D01*
Y00740581D01*
D02*
G37*
G36*
X0138626Y00664381D02*
X0137726D01*
X01375422Y00664139D01*
X01374112Y00663596D01*
X0137371Y00663429D01*
X01370801Y00662301D01*
X01367319D01*
X0136441Y00663429D01*
X01364008Y00663596D01*
X01362698Y00664139D01*
X0136086Y00664381D01*
X0135763D01*
Y0065278D01*
Y00641179D01*
X0136086D01*
X01362492Y00641394D01*
X01362813Y0064137D01*
X01368329Y00638937D01*
X0137029Y00636806D01*
X01370737Y00632848D01*
X01361536Y00623647D01*
X01231804D01*
X01223087Y00632364D01*
Y00642834D01*
X01223641Y00643259D01*
X01224769Y0064473D01*
X01225479Y00646442D01*
X01225721Y0064828D01*
Y0065728D01*
X01225479Y00659118D01*
X01224769Y0066083D01*
X01223641Y00662301D01*
X0122217Y00663429D01*
X01220458Y00664139D01*
X0121862Y00664381D01*
X0120962D01*
X01207782Y00664139D01*
X01206472Y00663596D01*
X0120607Y00663429D01*
X01203161Y00662301D01*
X01199679D01*
X0119677Y00663429D01*
X01196368Y00663596D01*
X01195058Y00664139D01*
X0119322Y00664381D01*
X0118999D01*
Y0065278D01*
Y00641179D01*
X0119322D01*
X01195058Y00641421D01*
X01196368Y00641964D01*
X0119677Y00642131D01*
X01197493Y00642411D01*
X01198458Y00642526D01*
X01200518Y00642103D01*
X01205153Y0063975D01*
Y00632364D01*
X01196436Y00623647D01*
X01065434D01*
X01055447Y00633634D01*
Y00642834D01*
X01056001Y00643259D01*
X01057129Y0064473D01*
X01057839Y00646442D01*
X01058081Y0064828D01*
Y0065728D01*
X01057839Y00659118D01*
X01057129Y0066083D01*
X01056001Y00662301D01*
X0105453Y00663429D01*
X01052818Y00664139D01*
X0105098Y00664381D01*
X0104198D01*
X01040142Y00664139D01*
X01038832Y00663596D01*
X0103843Y00663429D01*
X01035521Y00662301D01*
X01032039D01*
X0102913Y00663429D01*
X01028728Y00663596D01*
X01027418Y00664139D01*
X0102558Y00664381D01*
X0102235D01*
Y0065278D01*
Y00641179D01*
X0102558D01*
X01027418Y00641421D01*
X01028728Y00641964D01*
X0102913Y00642131D01*
X01029853Y00642411D01*
X01030818Y00642526D01*
X01032878Y00642103D01*
X01037513Y0063975D01*
Y0062992D01*
X01037819Y00627599D01*
X01038715Y00625437D01*
X0104014Y0062358D01*
X0105538Y0060834D01*
X01057237Y00606915D01*
X01059399Y00606019D01*
X0106172Y00605713D01*
X0120015D01*
X01202471Y00606019D01*
X01204633Y00606915D01*
X0120649Y0060834D01*
X0121412Y00615969D01*
X0122175Y0060834D01*
X01223607Y00606915D01*
X01225769Y00606019D01*
X0122809Y00605713D01*
X0136525D01*
X01367571Y00606019D01*
X01369733Y00606915D01*
X0137159Y0060834D01*
X013881Y0062485D01*
X01389525Y00626707D01*
X01390421Y00628869D01*
X01390727Y0063119D01*
Y00642834D01*
X01391281Y00643259D01*
X01392409Y0064473D01*
X01393119Y00646442D01*
X01393361Y0064828D01*
Y0065728D01*
X01393119Y00659118D01*
X01392409Y0066083D01*
X01391281Y00662301D01*
X0138981Y00663429D01*
X01388098Y00664139D01*
X0138626Y00664381D01*
D02*
G37*
G36*
X0135509D02*
X0135186D01*
X01350022Y00664139D01*
X0134831Y00663429D01*
X01347357Y00662699D01*
X01346124Y00662205D01*
X01340426Y00661647D01*
X01338046Y00662014D01*
X01335414Y00663533D01*
X01332479Y0066432D01*
X01329441D01*
X01326506Y00663533D01*
X0132472Y00662503D01*
X013171Y0066432D01*
X01315966Y0066432D01*
X0129402D01*
Y0064124D01*
X01315951D01*
X013171Y0064124D01*
X0132472Y00643057D01*
X01326506Y00642027D01*
X01329441Y0064124D01*
X01332479D01*
X01335414Y00642027D01*
X01338046Y00643546D01*
X01340426Y00643913D01*
X01346124Y00643355D01*
X01347357Y00642861D01*
X0134831Y00642131D01*
X01350022Y00641421D01*
X0135186Y00641179D01*
X0135509D01*
Y0065278D01*
Y00664381D01*
D02*
G37*
G36*
X0118745D02*
X0118422D01*
X01182382Y00664139D01*
X0118067Y00663429D01*
X01179717Y00662699D01*
X01178484Y00662205D01*
X01172786Y00661647D01*
X01170406Y00662014D01*
X01167774Y00663533D01*
X01164839Y0066432D01*
X01161801D01*
X01158866Y00663533D01*
X0115708Y00662503D01*
X0114946Y0066432D01*
X01148326Y0066432D01*
X0112638D01*
Y0064124D01*
X01148311D01*
X0114946Y0064124D01*
X0115708Y00643057D01*
X01158866Y00642027D01*
X01161801Y0064124D01*
X01164839D01*
X01167774Y00642027D01*
X01170406Y00643546D01*
X01172786Y00643913D01*
X01178484Y00643355D01*
X01179717Y00642861D01*
X0118067Y00642131D01*
X01182382Y00641421D01*
X0118422Y00641179D01*
X0118745D01*
Y0065278D01*
Y00664381D01*
D02*
G37*
G36*
X0101981D02*
X0101658D01*
X01014742Y00664139D01*
X0101303Y00663429D01*
X01012077Y00662699D01*
X01010844Y00662205D01*
X01005146Y00661647D01*
X01002766Y00662014D01*
X01000134Y00663533D01*
X00997199Y0066432D01*
X00994161D01*
X00991226Y00663533D01*
X0098944Y00662503D01*
X0098182Y0066432D01*
X00980686Y0066432D01*
X0095874D01*
Y0064124D01*
X00980671D01*
X0098182Y0064124D01*
X0098944Y00643057D01*
X00991226Y00642027D01*
X00994161Y0064124D01*
X00997199D01*
X01000134Y00642027D01*
X01002766Y00643546D01*
X01005146Y00643913D01*
X01010844Y00643355D01*
X01012077Y00642861D01*
X0101303Y00642131D01*
X01014742Y00641421D01*
X0101658Y00641179D01*
X0101981D01*
Y0065278D01*
Y00664381D01*
D02*
G37*
G36*
X01149599Y0058812D02*
X01146561D01*
X01143626Y00587333D01*
X01140994Y00585814D01*
X0114003Y0058485D01*
X0113538Y00584171D01*
X0113073Y0058485D01*
X01129766Y00585814D01*
X01127134Y00587333D01*
X01124199Y0058812D01*
X01121161D01*
X01118226Y00587333D01*
X01115594Y00585814D01*
X0111463Y0058485D01*
X0110998Y00584171D01*
X0110533Y0058485D01*
X01104366Y00585814D01*
X01101734Y00587333D01*
X01098799Y0058812D01*
X01095761D01*
X01092826Y00587333D01*
X01090194Y00585814D01*
X0108923Y0058485D01*
X0108458Y00584171D01*
X0107993Y0058485D01*
X01078966Y00585814D01*
X01076334Y00587333D01*
X01073399Y0058812D01*
X01070361D01*
X01067426Y00587333D01*
X01064794Y00585814D01*
X0106383Y0058485D01*
X0105918Y00584171D01*
X0105453Y0058485D01*
X01053566Y00585814D01*
X01050934Y00587333D01*
X01047999Y0058812D01*
X01044961D01*
X01042026Y00587333D01*
X01039394Y00585814D01*
X0103843Y0058485D01*
X0103378Y00584171D01*
X0102913Y0058485D01*
X01028166Y00585814D01*
X01025534Y00587333D01*
X01022599Y0058812D01*
X01019561D01*
X01016626Y00587333D01*
X01013994Y00585814D01*
X0101303Y0058485D01*
X0100838Y00584171D01*
X0100373Y0058485D01*
X01002766Y00585814D01*
X01000134Y00587333D01*
X00997199Y0058812D01*
X00994161D01*
X00991226Y00587333D01*
X00988594Y00585814D01*
X0098763Y0058485D01*
X0098298Y00584171D01*
X0097833Y0058485D01*
X00977366Y00585814D01*
X00974734Y00587333D01*
X00971799Y0058812D01*
X00968761D01*
X00965826Y00587333D01*
X00963194Y00585814D01*
X00961046Y00583666D01*
X00959527Y00581034D01*
X0095874Y00578099D01*
Y00575061D01*
X00959527Y00572126D01*
X00961046Y00569494D01*
X00963194Y00567346D01*
X00965826Y00565826D01*
X00968761Y0056504D01*
X00971799D01*
X00974734Y00565826D01*
X00977366Y00567346D01*
X0097833Y0056831D01*
X0098298Y00568989D01*
X0098763Y0056831D01*
X00988594Y00567346D01*
X00991226Y00565826D01*
X00994161Y0056504D01*
X00997199D01*
X01000134Y00565826D01*
X01002766Y00567346D01*
X0100373Y0056831D01*
X0100838Y00568989D01*
X0101303Y0056831D01*
X01013994Y00567346D01*
X01016626Y00565826D01*
X01019561Y0056504D01*
X01022599D01*
X01025534Y00565826D01*
X01028166Y00567346D01*
X0102913Y0056831D01*
X0103378Y00568989D01*
X0103843Y0056831D01*
X01039394Y00567346D01*
X01042026Y00565826D01*
X01044961Y0056504D01*
X01047999D01*
X01050934Y00565826D01*
X01053566Y00567346D01*
X0105453Y0056831D01*
X0105918Y00568989D01*
X0106383Y0056831D01*
X01064794Y00567346D01*
X01067426Y00565826D01*
X01070361Y0056504D01*
X01073399D01*
X01076334Y00565826D01*
X01078966Y00567346D01*
X0107993Y0056831D01*
X0108458Y00568989D01*
X0108923Y0056831D01*
X01090194Y00567346D01*
X01092826Y00565826D01*
X01095761Y0056504D01*
X01098799D01*
X01101734Y00565826D01*
X01104366Y00567346D01*
X0110533Y0056831D01*
X0110998Y00568989D01*
X0111463Y0056831D01*
X01115594Y00567346D01*
X01118226Y00565826D01*
X01121161Y0056504D01*
X01124199D01*
X01127134Y00565826D01*
X01129766Y00567346D01*
X0113073Y0056831D01*
X0113538Y00568989D01*
X0114003Y0056831D01*
X01140994Y00567346D01*
X01143626Y00565826D01*
X01146561Y0056504D01*
X01149599D01*
X01152534Y00565826D01*
X01155166Y00567346D01*
X01157314Y00569494D01*
X01158833Y00572126D01*
X0115962Y00575061D01*
Y00578099D01*
X01158833Y00581034D01*
X01157314Y00583666D01*
X01155166Y00585814D01*
X01152534Y00587333D01*
X01149599Y0058812D01*
D02*
G37*
G36*
X0130429Y00588181D02*
X0130106D01*
X01299222Y00587939D01*
X0129751Y00587229D01*
X01296039Y00586101D01*
X01294911Y0058463D01*
X01294201Y00582918D01*
X01293959Y0058108D01*
Y0057785D01*
X0130429D01*
Y00588181D01*
D02*
G37*
G36*
X0131006D02*
X0130683D01*
Y0057658D01*
Y00564979D01*
X0131006D01*
X01311898Y00565221D01*
X0131361Y00565931D01*
X01314563Y00566661D01*
X01315796Y00567155D01*
X01321494Y00567713D01*
X01323874Y00567346D01*
X01326506Y00565826D01*
X01329441Y0056504D01*
X01332479D01*
X01335414Y00565826D01*
X01338046Y00567346D01*
X0133901Y0056831D01*
X0134366Y00568989D01*
X0134831Y0056831D01*
X01349274Y00567346D01*
X01351906Y00565826D01*
X01354841Y0056504D01*
X01357879D01*
X01360814Y00565826D01*
X01363446Y00567346D01*
X0136441Y0056831D01*
X0136906Y00568989D01*
X0137371Y0056831D01*
X01374674Y00567346D01*
X01377306Y00565826D01*
X01380241Y0056504D01*
X01383279D01*
X01386214Y00565826D01*
X01388846Y00567346D01*
X01390994Y00569494D01*
X01392513Y00572126D01*
X013933Y00575061D01*
Y00578099D01*
X01392513Y00581034D01*
X01390994Y00583666D01*
X01388846Y00585814D01*
X01386214Y00587333D01*
X01383279Y0058812D01*
X01380241D01*
X01377306Y00587333D01*
X01374674Y00585814D01*
X0137371Y0058485D01*
X0136906Y00584171D01*
X0136441Y0058485D01*
X01363446Y00585814D01*
X01360814Y00587333D01*
X01357879Y0058812D01*
X01354841D01*
X01351906Y00587333D01*
X01349274Y00585814D01*
X0134831Y0058485D01*
X0134366Y00584171D01*
X0133901Y0058485D01*
X01338046Y00585814D01*
X01335414Y00587333D01*
X01332479Y0058812D01*
X01329441D01*
X01326506Y00587333D01*
X01323874Y00585814D01*
X01321494Y00585447D01*
X01315796Y00586005D01*
X01314563Y00586499D01*
X0131361Y00587229D01*
X01311898Y00587939D01*
X0131006Y00588181D01*
D02*
G37*
G36*
X0130429Y0057531D02*
X01293959D01*
Y0057208D01*
X01294201Y00570242D01*
X01294911Y0056853D01*
X01296039Y00567059D01*
X0129751Y00565931D01*
X01299222Y00565221D01*
X0130106Y00564979D01*
X0130429D01*
Y0057531D01*
D02*
G37*
G36*
X0132461Y00486581D02*
X0132138D01*
X01319542Y00486339D01*
X0131783Y00485629D01*
X01316877Y00484899D01*
X01315644Y00484405D01*
X01309946Y00483847D01*
X01307566Y00484214D01*
X01304934Y00485733D01*
X01301999Y0048652D01*
X01298961D01*
X01296026Y00485733D01*
X01293394Y00484214D01*
X0129243Y0048325D01*
X0128778Y00482571D01*
X0128313Y0048325D01*
X01282166Y00484214D01*
X01279534Y00485733D01*
X01276599Y0048652D01*
X01273561D01*
X01270626Y00485733D01*
X01267994Y00484214D01*
X0126703Y0048325D01*
X0126238Y00482571D01*
X0125773Y0048325D01*
X01256766Y00484214D01*
X01254134Y00485733D01*
X01251199Y0048652D01*
X01248161D01*
X01245226Y00485733D01*
X01242594Y00484214D01*
X0124163Y0048325D01*
X0123698Y00482571D01*
X0123233Y0048325D01*
X01231366Y00484214D01*
X01228734Y00485733D01*
X01225799Y0048652D01*
X01222761D01*
X01219826Y00485733D01*
X01217194Y00484214D01*
X0121623Y0048325D01*
X0121158Y00482571D01*
X0120693Y0048325D01*
X01205966Y00484214D01*
X01203334Y00485733D01*
X01200399Y0048652D01*
X01197361D01*
X01194426Y00485733D01*
X01191794Y00484214D01*
X0119083Y0048325D01*
X0118618Y00482571D01*
X0118153Y0048325D01*
X01180566Y00484214D01*
X01177934Y00485733D01*
X01174999Y0048652D01*
X01171961D01*
X01169026Y00485733D01*
X01166394Y00484214D01*
X0116543Y0048325D01*
X0116078Y00482571D01*
X0115613Y0048325D01*
X01155166Y00484214D01*
X01152534Y00485733D01*
X01149599Y0048652D01*
X01146561D01*
X01143626Y00485733D01*
X01140994Y00484214D01*
X0114003Y0048325D01*
X0113538Y00482571D01*
X0113073Y0048325D01*
X01129766Y00484214D01*
X01127134Y00485733D01*
X01124199Y0048652D01*
X01121161D01*
X01118226Y00485733D01*
X01115594Y00484214D01*
X0111463Y0048325D01*
X0110998Y00482571D01*
X0110533Y0048325D01*
X01104366Y00484214D01*
X01101734Y00485733D01*
X01098799Y0048652D01*
X01095761D01*
X01092826Y00485733D01*
X01090194Y00484214D01*
X0108923Y0048325D01*
X0108458Y00482571D01*
X0107993Y0048325D01*
X01078966Y00484214D01*
X01076334Y00485733D01*
X01073399Y0048652D01*
X01070361D01*
X01067426Y00485733D01*
X01064794Y00484214D01*
X0106383Y0048325D01*
X0105918Y00482571D01*
X0105453Y0048325D01*
X01053566Y00484214D01*
X01050934Y00485733D01*
X01047999Y0048652D01*
X01044961D01*
X01042026Y00485733D01*
X01039394Y00484214D01*
X0103843Y0048325D01*
X0103378Y00482571D01*
X0102913Y0048325D01*
X01028166Y00484214D01*
X01025534Y00485733D01*
X01022599Y0048652D01*
X01019561D01*
X01016626Y00485733D01*
X01013994Y00484214D01*
X0101303Y0048325D01*
X0100838Y00482571D01*
X0100373Y0048325D01*
X01002766Y00484214D01*
X01000134Y00485733D01*
X00997199Y0048652D01*
X00994161D01*
X00991226Y00485733D01*
X00988594Y00484214D01*
X0098763Y0048325D01*
X0098298Y00482571D01*
X0097833Y0048325D01*
X00977366Y00484214D01*
X00974734Y00485733D01*
X00971799Y0048652D01*
X00968761D01*
X00965826Y00485733D01*
X00963194Y00484214D01*
X00961046Y00482066D01*
X00959527Y00479434D01*
X0095874Y00476499D01*
Y00473461D01*
X00959527Y00470526D01*
X00961046Y00467894D01*
X00963194Y00465746D01*
X00965826Y00464226D01*
X00968761Y0046344D01*
X00971799D01*
X00974734Y00464226D01*
X00977366Y00465746D01*
X0097833Y0046671D01*
X0098298Y00467389D01*
X0098763Y0046671D01*
X00988594Y00465746D01*
X00991226Y00464226D01*
X00994161Y0046344D01*
X00997199D01*
X01000134Y00464226D01*
X01002766Y00465746D01*
X0100373Y0046671D01*
X0100838Y00467389D01*
X0101303Y0046671D01*
X01013994Y00465746D01*
X01016626Y00464226D01*
X01019561Y0046344D01*
X01022599D01*
X01025534Y00464226D01*
X01028166Y00465746D01*
X0102913Y0046671D01*
X0103378Y00467389D01*
X0103843Y0046671D01*
X01039394Y00465746D01*
X01042026Y00464226D01*
X01044961Y0046344D01*
X01047999D01*
X01050934Y00464226D01*
X01053566Y00465746D01*
X0105453Y0046671D01*
X0105918Y00467389D01*
X0106383Y0046671D01*
X01064794Y00465746D01*
X01067426Y00464226D01*
X01070361Y0046344D01*
X01073399D01*
X01076334Y00464226D01*
X01078966Y00465746D01*
X0107993Y0046671D01*
X0108458Y00467389D01*
X0108923Y0046671D01*
X01090194Y00465746D01*
X01092826Y00464226D01*
X01095761Y0046344D01*
X01098799D01*
X01101734Y00464226D01*
X01104366Y00465746D01*
X0110533Y0046671D01*
X0110998Y00467389D01*
X0111463Y0046671D01*
X01115594Y00465746D01*
X01118226Y00464226D01*
X01121161Y0046344D01*
X01124199D01*
X01127134Y00464226D01*
X01129766Y00465746D01*
X0113073Y0046671D01*
X0113538Y00467389D01*
X0114003Y0046671D01*
X01140994Y00465746D01*
X01143626Y00464226D01*
X01146561Y0046344D01*
X01149599D01*
X01152534Y00464226D01*
X01155166Y00465746D01*
X0115613Y0046671D01*
X0116078Y00467389D01*
X0116543Y0046671D01*
X01166394Y00465746D01*
X01169026Y00464226D01*
X01171961Y0046344D01*
X01174999D01*
X01177934Y00464226D01*
X01180566Y00465746D01*
X0118153Y0046671D01*
X0118618Y00467389D01*
X0119083Y0046671D01*
X01191794Y00465746D01*
X01194426Y00464226D01*
X01197361Y0046344D01*
X01200399D01*
X01203334Y00464226D01*
X01205966Y00465746D01*
X0120693Y0046671D01*
X0121158Y00467389D01*
X0121623Y0046671D01*
X01217194Y00465746D01*
X01219826Y00464226D01*
X01222761Y0046344D01*
X01225799D01*
X01228734Y00464226D01*
X01231366Y00465746D01*
X0123233Y0046671D01*
X0123698Y00467389D01*
X0124163Y0046671D01*
X01242594Y00465746D01*
X01245226Y00464226D01*
X01248161Y0046344D01*
X01251199D01*
X01254134Y00464226D01*
X01256766Y00465746D01*
X0125773Y0046671D01*
X0126238Y00467389D01*
X0126703Y0046671D01*
X01267994Y00465746D01*
X01270626Y00464226D01*
X01273561Y0046344D01*
X01276599D01*
X01279534Y00464226D01*
X01282166Y00465746D01*
X0128313Y0046671D01*
X0128778Y00467389D01*
X0129243Y0046671D01*
X01293394Y00465746D01*
X01296026Y00464226D01*
X01298961Y0046344D01*
X01301999D01*
X01304934Y00464226D01*
X01307566Y00465746D01*
X01309946Y00466113D01*
X01315644Y00465555D01*
X01316877Y00465061D01*
X0131783Y00464331D01*
X01319542Y00463621D01*
X0132138Y00463379D01*
X0132461D01*
Y0047498D01*
Y00486581D01*
D02*
G37*
G36*
X0133038D02*
X0132715D01*
Y0047498D01*
Y00463379D01*
X0133038D01*
X01332218Y00463621D01*
X0133393Y00464331D01*
X01334883Y00465061D01*
X01336116Y00465555D01*
X01341814Y00466113D01*
X01344194Y00465746D01*
X01346826Y00464226D01*
X01349761Y0046344D01*
X01352799D01*
X01355734Y00464226D01*
X01358366Y00465746D01*
X0135933Y0046671D01*
X0136398Y00467389D01*
X0136863Y0046671D01*
X01369594Y00465746D01*
X01372226Y00464226D01*
X01375161Y0046344D01*
X01378199D01*
X01381134Y00464226D01*
X01383766Y00465746D01*
X0138473Y0046671D01*
X0138938Y00467389D01*
X0139403Y0046671D01*
X01394994Y00465746D01*
X01397626Y00464226D01*
X01400561Y0046344D01*
X01403599D01*
X01406534Y00464226D01*
X01409166Y00465746D01*
X01411314Y00467894D01*
X01412834Y00470526D01*
X0141362Y00473461D01*
Y00476499D01*
X01412834Y00479434D01*
X01411314Y00482066D01*
X01409166Y00484214D01*
X01406534Y00485733D01*
X01403599Y0048652D01*
X01400561D01*
X01397626Y00485733D01*
X01394994Y00484214D01*
X0139403Y0048325D01*
X0138938Y00482571D01*
X0138473Y0048325D01*
X01383766Y00484214D01*
X01381134Y00485733D01*
X01378199Y0048652D01*
X01375161D01*
X01372226Y00485733D01*
X01369594Y00484214D01*
X0136863Y0048325D01*
X0136398Y00482571D01*
X0135933Y0048325D01*
X01358366Y00484214D01*
X01355734Y00485733D01*
X01352799Y0048652D01*
X01349761D01*
X01346826Y00485733D01*
X01344194Y00484214D01*
X01341814Y00483847D01*
X01336116Y00484405D01*
X01334883Y00484899D01*
X0133393Y00485629D01*
X01332218Y00486339D01*
X0133038Y00486581D01*
D02*
G37*
%LPD*%
D15*
X0121412Y0088138D02*
Y0090678D01*
X0123317Y0092583D01*
X0128016D01*
X0129032Y0093599D01*
Y0095758D01*
X0118872Y0088138D02*
Y0095758D01*
X0138176Y0063119D02*
Y0065278D01*
X0136525Y0061468D02*
X0138176Y0063119D01*
X0122809Y0061468D02*
X0136525D01*
X0121412Y0062865D02*
X0122809Y0061468D01*
X0135636Y0065278D02*
Y0067818D01*
X0134493Y0068961D02*
X0135636Y0067818D01*
X0120396Y0068961D02*
X0134493D01*
X0118872Y0067437D02*
X0120396Y0068961D01*
X0121412Y0062865D02*
Y0065278D01*
X0120015Y0061468D02*
X0121412Y0062865D01*
X0106172Y0061468D02*
X0120015D01*
X0104648Y0062992D02*
X0106172Y0061468D01*
X0104648Y0062992D02*
Y0065278D01*
X0118872D02*
Y0067437D01*
X0117475Y0068834D02*
X0118872Y0067437D01*
X0103759Y0068834D02*
X0117475D01*
X0102108Y0067183D02*
X0103759Y0068834D01*
X0102108Y0065278D02*
Y0067183D01*
D16*
X0097028Y0047498D02*
D03*
X0099568D02*
D03*
X0102108D02*
D03*
X0104648D02*
D03*
X0107188D02*
D03*
X0109728D02*
D03*
X0112268D02*
D03*
X0114808D02*
D03*
X0109728Y0057658D02*
D03*
X0117348Y0047498D02*
D03*
X0119888D02*
D03*
X0122428D02*
D03*
X0124968D02*
D03*
X0127508D02*
D03*
X0130048D02*
D03*
X0135128D02*
D03*
X0137668D02*
D03*
X0140208D02*
D03*
X0099568Y0088138D02*
D03*
Y0072898D02*
D03*
Y0065278D02*
D03*
Y0080518D02*
D03*
X0102108Y0095758D02*
D03*
X0099568D02*
D03*
X0133096Y0057658D02*
D03*
X0097028Y0095758D02*
D03*
X0104648D02*
D03*
X0133096Y0080518D02*
D03*
Y0088138D02*
D03*
Y0072898D02*
D03*
Y0065278D02*
D03*
X0116332Y0080518D02*
D03*
X0113792Y0095758D02*
D03*
X0116332D02*
D03*
X0121412D02*
D03*
X0123952D02*
D03*
X0126492D02*
D03*
X0131572D02*
D03*
X0097028Y0057658D02*
D03*
X0099568D02*
D03*
X0102108D02*
D03*
X0104648D02*
D03*
X0107188D02*
D03*
X0112268D02*
D03*
X0114808D02*
D03*
X0138176D02*
D03*
X0135636D02*
D03*
X0116332Y0072898D02*
D03*
Y0065278D02*
D03*
Y0088138D02*
D03*
X0109728Y0095758D02*
D03*
X0107188D02*
D03*
D17*
X0132588Y0047498D02*
D03*
X0102108Y0088138D02*
D03*
X0104648D02*
D03*
X0102108Y0072898D02*
D03*
X0104648D02*
D03*
X0102108Y0065278D02*
D03*
X0104648D02*
D03*
X0102108Y0080518D02*
D03*
X0104648D02*
D03*
X0118872Y0095758D02*
D03*
Y0080518D02*
D03*
Y0088138D02*
D03*
Y0065278D02*
D03*
Y0072898D02*
D03*
X0130556Y0057658D02*
D03*
X0135636Y0088138D02*
D03*
Y0080518D02*
D03*
Y0072898D02*
D03*
Y0065278D02*
D03*
X0129032Y0095758D02*
D03*
X0121412Y0080518D02*
D03*
Y0088138D02*
D03*
Y0065278D02*
D03*
Y0072898D02*
D03*
X0138176Y0088138D02*
D03*
Y0080518D02*
D03*
Y0072898D02*
D03*
Y0065278D02*
D03*
D18*
X0097028Y0088138D02*
D03*
Y0072898D02*
D03*
Y0065278D02*
D03*
Y0080518D02*
D03*
X0130556D02*
D03*
Y0088138D02*
D03*
Y0072898D02*
D03*
Y0065278D02*
D03*
X0113792Y0080518D02*
D03*
Y0072898D02*
D03*
Y0065278D02*
D03*
Y0088138D02*
D03*
M02*
