G04*
G04 #@! TF.GenerationSoftware,Altium Limited,Altium Designer,25.8.1 (18)*
G04*
G04 Layer_Color=16711935*
%FSTAX44Y44*%
%MOMM*%
G71*
G04*
G04 #@! TF.SameCoordinates,53145892-F8B7-426C-B92B-CC24EB8AAB86*
G04*
G04*
G04 #@! TF.FilePolarity,Negative*
G04*
G01*
G75*
%ADD12C,2.0032*%
G04:AMPARAMS|DCode=13|XSize=2.0032mm|YSize=2.0032mm|CornerRadius=0.5516mm|HoleSize=0mm|Usage=FLASHONLY|Rotation=0.000|XOffset=0mm|YOffset=0mm|HoleType=Round|Shape=RoundedRectangle|*
%AMROUNDEDRECTD13*
21,1,2.0032,0.9000,0,0,0.0*
21,1,0.9000,2.0032,0,0,0.0*
1,1,1.1032,0.4500,-0.4500*
1,1,1.1032,-0.4500,-0.4500*
1,1,1.1032,-0.4500,0.4500*
1,1,1.1032,0.4500,0.4500*
%
%ADD13ROUNDEDRECTD13*%
%ADD14R,2.0032X2.0032*%
D12*
X0097028Y0047498D02*
D03*
X0099568D02*
D03*
X0102108D02*
D03*
X0104648D02*
D03*
X0107188D02*
D03*
X0109728D02*
D03*
X0112268D02*
D03*
X0114808D02*
D03*
X0109728Y0057658D02*
D03*
X0117348Y0047498D02*
D03*
X0119888D02*
D03*
X0122428D02*
D03*
X0124968D02*
D03*
X0127508D02*
D03*
X0130048D02*
D03*
X0135128D02*
D03*
X0137668D02*
D03*
X0140208D02*
D03*
X0099568Y0088138D02*
D03*
Y0072898D02*
D03*
Y0065278D02*
D03*
Y0080518D02*
D03*
X0102108Y0095758D02*
D03*
X0099568D02*
D03*
X0133096Y0057658D02*
D03*
X0097028Y0095758D02*
D03*
X0104648D02*
D03*
X0133096Y0080518D02*
D03*
Y0088138D02*
D03*
Y0072898D02*
D03*
Y0065278D02*
D03*
X0116332Y0080518D02*
D03*
X0113792Y0095758D02*
D03*
X0116332D02*
D03*
X0121412D02*
D03*
X0123952D02*
D03*
X0126492D02*
D03*
X0131572D02*
D03*
X0097028Y0057658D02*
D03*
X0099568D02*
D03*
X0102108D02*
D03*
X0104648D02*
D03*
X0107188D02*
D03*
X0112268D02*
D03*
X0114808D02*
D03*
X0138176D02*
D03*
X0135636D02*
D03*
X0116332Y0072898D02*
D03*
Y0065278D02*
D03*
Y0088138D02*
D03*
X0109728Y0095758D02*
D03*
X0107188D02*
D03*
D13*
X0132588Y0047498D02*
D03*
X0102108Y0088138D02*
D03*
X0104648D02*
D03*
X0102108Y0072898D02*
D03*
X0104648D02*
D03*
X0102108Y0065278D02*
D03*
X0104648D02*
D03*
X0102108Y0080518D02*
D03*
X0104648D02*
D03*
X0118872Y0095758D02*
D03*
Y0080518D02*
D03*
Y0088138D02*
D03*
Y0065278D02*
D03*
Y0072898D02*
D03*
X0130556Y0057658D02*
D03*
X0135636Y0088138D02*
D03*
Y0080518D02*
D03*
Y0072898D02*
D03*
Y0065278D02*
D03*
X0129032Y0095758D02*
D03*
X0121412Y0080518D02*
D03*
Y0088138D02*
D03*
Y0065278D02*
D03*
Y0072898D02*
D03*
X0138176Y0088138D02*
D03*
Y0080518D02*
D03*
Y0072898D02*
D03*
Y0065278D02*
D03*
D14*
X0097028Y0088138D02*
D03*
Y0072898D02*
D03*
Y0065278D02*
D03*
Y0080518D02*
D03*
X0130556D02*
D03*
Y0088138D02*
D03*
Y0072898D02*
D03*
Y0065278D02*
D03*
X0113792Y0080518D02*
D03*
Y0072898D02*
D03*
Y0065278D02*
D03*
Y0088138D02*
D03*
M02*
