M48
;Layer_Color=9474304
;FILE_FORMAT=2:4
INCH,LZ
;TYPE=PLATED
T01F00S00C0.0394
T02F00S00C0.0394
T03F00S00C0.0402
T04F00S00C0.0402
%
T01
X0478Y0257
Y0287
X0514
X0524
X0534
X0544
Y0257
X0534
X0524
X0514
Y0227
X0524
X0534
X0544
X0452
X0442
X0432
X0422
X0412
X0402
X0392
X0382
Y0187
X0392
X0402
X0412
X0422
X0432
X0442
X0452
X0448Y0257
X0458
X0468
Y0287
X0458
X0448
Y0317
X0458
X0468
Y0347
X0458
X0448
Y0377
X0458
X0468
X0432
X0422
X0412
X0402
X0392
X0382
X0412Y0347
Y0317
X0402
X0392
X0382
X0478
Y0347
Y0377
X0488
X0498
X0508
X0518
X0514Y0347
X0524
X0534
X0544
Y0317
X0534
X0524
X0514
T02
X0382Y0257
X0392
X0402
X0412
Y0287
X0402
X0392
X0382
T03
X0382Y0347
X0392
X0402
T04
X0472Y0187
X0482
X0492
X0502
X0512
X0522
X0532
X0542
X0552
X0462
M30
